# This file uses centimeters as units for non-parametric coordinates.

mtllib spcar2_wheels.mtl
g default
v 2.107223 0.371967 1.004932
v 2.043133 0.497751 1.004932
v 1.943310 0.597573 1.004932
v 1.817526 0.661663 1.004932
v 1.678094 0.683747 1.004932
v 1.538661 0.661663 1.004932
v 1.412878 0.597573 1.004932
v 1.313055 0.497751 1.004932
v 1.248964 0.371967 1.004932
v 1.226881 0.232534 1.004932
v 1.248964 0.093102 1.004932
v 1.313055 -0.032682 1.004932
v 1.412878 -0.132504 1.004932
v 1.538661 -0.196594 1.004932
v 1.678094 -0.218678 1.004932
v 1.817526 -0.196594 1.004932
v 1.943310 -0.132504 1.004932
v 2.043133 -0.032682 1.004932
v 2.107223 0.093102 1.004932
v 2.129307 0.232534 1.004932
v 2.107223 0.371967 1.387880
v 2.043133 0.497751 1.387880
v 1.943310 0.597573 1.387880
v 1.817526 0.661663 1.387880
v 1.678094 0.683747 1.387880
v 1.538661 0.661663 1.387880
v 1.412878 0.597573 1.387880
v 1.313055 0.497751 1.387880
v 1.248964 0.371967 1.387880
v 1.226881 0.232534 1.387880
v 1.248964 0.093102 1.387880
v 1.313055 -0.032682 1.387880
v 1.412878 -0.132504 1.387880
v 1.538661 -0.196594 1.387880
v 1.678094 -0.218678 1.387880
v 1.817526 -0.196594 1.387880
v 1.943310 -0.132504 1.387880
v 2.043133 -0.032682 1.387880
v 2.107223 0.093102 1.387880
v 2.129307 0.232534 1.387880
v 1.678094 0.232534 1.004932
v 1.678094 0.232534 1.387880
vt 0.714665 0.153486
vt 0.757708 0.153479
vt 0.757750 0.456278
vt 0.714706 0.456286
vt 0.800751 0.153472
vt 0.800793 0.456271
vt 0.843795 0.153465
vt 0.843836 0.456264
vt 0.886838 0.153458
vt 0.886879 0.456257
vt 0.929881 0.153451
vt 0.929922 0.456250
vt 0.069017 0.153593
vt 0.112061 0.153586
vt 0.112102 0.456385
vt 0.069059 0.456393
vt 0.155104 0.153579
vt 0.155145 0.456378
vt 0.198147 0.153572
vt 0.198188 0.456371
vt 0.241190 0.153565
vt 0.241232 0.456364
vt 0.284233 0.153557
vt 0.284275 0.456357
vt 0.327276 0.153550
vt 0.327318 0.456350
vt 0.370320 0.153543
vt 0.370361 0.456343
vt 0.413363 0.153536
vt 0.413404 0.456335
vt 0.456406 0.153529
vt 0.456447 0.456328
vt 0.499449 0.153522
vt 0.499490 0.456321
vt 0.542492 0.153515
vt 0.542534 0.456314
vt 0.585535 0.153508
vt 0.585577 0.456307
vt 0.628579 0.153500
vt 0.628620 0.456300
vt 0.671622 0.153493
vt 0.671663 0.456293
vt 0.401951 0.653328
vt 0.430653 0.709658
vt 0.238476 0.772100
vt 0.357248 0.608624
vt 0.300918 0.579923
vt 0.238476 0.570033
vt 0.176033 0.579923
vt 0.119703 0.608625
vt 0.075000 0.653328
vt 0.046298 0.709658
vt 0.036408 0.772100
vt 0.046298 0.834543
vt 0.075000 0.890872
vt 0.119703 0.935576
vt 0.176033 0.964278
vt 0.238476 0.974168
vt 0.300918 0.964278
vt 0.357248 0.935576
vt 0.401951 0.890872
vt 0.430653 0.834543
vt 0.440543 0.772100
vt 0.953458 0.829976
vt 0.924756 0.886306
vt 0.761280 0.767534
vt 0.880053 0.931010
vt 0.823723 0.959711
vt 0.761280 0.969601
vt 0.698838 0.959711
vt 0.642508 0.931010
vt 0.597805 0.886306
vt 0.569103 0.829976
vt 0.559213 0.767534
vt 0.569103 0.705092
vt 0.597805 0.648762
vt 0.642508 0.604058
vt 0.698838 0.575357
vt 0.761280 0.565467
vt 0.823723 0.575357
vt 0.880053 0.604058
vt 0.924756 0.648762
vt 0.953458 0.705092
vt 0.963347 0.767534
vn 0.891006 0.453992 0.000000
vn 0.891006 0.453992 0.000000
vn 0.891006 0.453992 0.000000
vn 0.891006 0.453992 0.000000
vn 0.809017 0.587785 0.000000
vn 0.587785 0.809017 0.000000
vn 0.587785 0.809017 0.000000
vn 0.809017 0.587785 0.000000
vn 0.587785 0.809017 0.000000
vn 0.309017 0.951057 0.000000
vn 0.309017 0.951057 0.000000
vn 0.587785 0.809017 0.000000
vn 0.309017 0.951057 0.000000
vn 0.000000 1.000000 0.000000
vn 0.000000 1.000000 0.000000
vn 0.309017 0.951057 0.000000
vn 0.000000 1.000000 0.000000
vn -0.309017 0.951056 0.000000
vn -0.309017 0.951056 0.000000
vn 0.000000 1.000000 0.000000
vn -0.309017 0.951056 0.000000
vn -0.587785 0.809017 0.000000
vn -0.587785 0.809017 0.000000
vn -0.309017 0.951056 0.000000
vn -0.587785 0.809017 0.000000
vn -0.809017 0.587785 0.000000
vn -0.809017 0.587785 0.000000
vn -0.587785 0.809017 0.000000
vn -0.809017 0.587785 0.000000
vn -0.951057 0.309017 0.000000
vn -0.951057 0.309017 0.000000
vn -0.809017 0.587785 0.000000
vn -0.951057 0.309017 0.000000
vn -1.000000 0.000000 0.000000
vn -1.000000 0.000000 0.000000
vn -0.951057 0.309017 0.000000
vn -1.000000 0.000000 0.000000
vn -0.951057 -0.309017 0.000000
vn -0.951057 -0.309017 0.000000
vn -1.000000 0.000000 0.000000
vn -0.951057 -0.309017 0.000000
vn -0.809017 -0.587785 0.000000
vn -0.809017 -0.587785 0.000000
vn -0.951057 -0.309017 0.000000
vn -0.809017 -0.587785 0.000000
vn -0.587785 -0.809017 0.000000
vn -0.587785 -0.809017 0.000000
vn -0.809017 -0.587785 0.000000
vn -0.587785 -0.809017 0.000000
vn -0.309017 -0.951057 0.000000
vn -0.309017 -0.951057 0.000000
vn -0.587785 -0.809017 0.000000
vn -0.309017 -0.951057 0.000000
vn 0.000000 -1.000000 0.000000
vn 0.000000 -1.000000 0.000000
vn -0.309017 -0.951057 0.000000
vn 0.000000 -1.000000 0.000000
vn 0.309017 -0.951057 0.000000
vn 0.309017 -0.951057 0.000000
vn 0.000000 -1.000000 0.000000
vn 0.309017 -0.951057 0.000000
vn 0.587785 -0.809017 0.000000
vn 0.587785 -0.809017 0.000000
vn 0.309017 -0.951057 0.000000
vn 0.587785 -0.809017 0.000000
vn 0.809017 -0.587785 0.000000
vn 0.809017 -0.587785 0.000000
vn 0.587785 -0.809017 0.000000
vn 0.809017 -0.587785 0.000000
vn 0.951057 -0.309017 0.000000
vn 0.951057 -0.309017 0.000000
vn 0.809017 -0.587785 0.000000
vn 0.951057 -0.309017 0.000000
vn 1.000000 -0.000001 0.000000
vn 1.000000 -0.000001 0.000000
vn 0.951057 -0.309017 0.000000
vn 1.000000 -0.000001 0.000000
vn 0.951057 0.309016 0.000000
vn 0.951057 0.309016 0.000000
vn 1.000000 -0.000001 0.000000
vn 0.000000 0.000000 -1.000000
vn 0.000000 0.000000 -1.000000
vn 0.000000 0.000000 -1.000000
vn 0.000000 0.000000 -1.000000
vn 0.000000 0.000000 -1.000000
vn 0.000000 0.000000 -1.000000
vn 0.000000 0.000000 -1.000000
vn 0.000000 0.000000 -1.000000
vn 0.000000 0.000000 -1.000000
vn 0.000000 0.000000 -1.000000
vn 0.000000 0.000000 -1.000000
vn 0.000000 0.000000 -1.000000
vn 0.000000 0.000000 -1.000000
vn 0.000000 0.000000 -1.000000
vn 0.000000 0.000000 -1.000000
vn 0.000000 0.000000 -1.000000
vn 0.000000 0.000000 -1.000000
vn 0.000000 0.000000 -1.000000
vn 0.000000 0.000000 -1.000000
vn 0.000000 0.000000 -1.000000
vn 0.000000 0.000000 -1.000000
vn 0.000000 0.000000 -1.000000
vn 0.000000 0.000000 -1.000000
vn 0.000000 0.000000 -1.000000
vn 0.000000 0.000000 -1.000000
vn 0.000000 0.000000 -1.000000
vn 0.000000 0.000000 -1.000000
vn 0.000000 0.000000 -1.000000
vn 0.000000 0.000000 -1.000000
vn 0.000000 0.000000 -1.000000
vn 0.000000 0.000000 -1.000000
vn 0.000000 0.000000 -1.000000
vn 0.000000 0.000000 -1.000000
vn 0.000000 0.000000 -1.000000
vn 0.000000 0.000000 -1.000000
vn 0.000000 0.000000 -1.000000
vn 0.000000 0.000000 -1.000000
vn 0.000000 0.000000 -1.000000
vn 0.000000 0.000000 -1.000000
vn 0.000000 0.000000 -1.000000
vn 0.000000 0.000000 -1.000000
vn 0.000000 0.000000 -1.000000
vn 0.000000 0.000000 -1.000000
vn 0.000000 0.000000 -1.000000
vn 0.000000 0.000000 -1.000000
vn 0.000000 0.000000 -1.000000
vn 0.000000 0.000000 -1.000000
vn 0.000000 0.000000 -1.000000
vn 0.000000 0.000000 -1.000000
vn 0.000000 0.000000 -1.000000
vn 0.000000 0.000000 -1.000000
vn 0.000000 0.000000 -1.000000
vn 0.000000 0.000000 -1.000000
vn 0.000000 0.000000 -1.000000
vn 0.000000 0.000000 -1.000000
vn 0.000000 0.000000 -1.000000
vn 0.000000 0.000000 -1.000000
vn 0.000000 0.000000 -1.000000
vn 0.000000 0.000000 -1.000000
vn 0.000000 0.000000 -1.000000
vn 0.000000 0.000000 1.000000
vn 0.000000 0.000000 1.000000
vn 0.000000 0.000000 1.000000
vn 0.000000 0.000000 1.000000
vn 0.000000 0.000000 1.000000
vn 0.000000 0.000000 1.000000
vn 0.000000 0.000000 1.000000
vn 0.000000 0.000000 1.000000
vn 0.000000 0.000000 1.000000
vn 0.000000 0.000000 1.000000
vn 0.000000 0.000000 1.000000
vn 0.000000 0.000000 1.000000
vn 0.000000 0.000000 1.000000
vn 0.000000 0.000000 1.000000
vn 0.000000 0.000000 1.000000
vn 0.000000 0.000000 1.000000
vn 0.000000 0.000000 1.000000
vn 0.000000 0.000000 1.000000
vn 0.000000 0.000000 1.000000
vn 0.000000 0.000000 1.000000
vn 0.000000 0.000000 1.000000
vn 0.000000 0.000000 1.000000
vn 0.000000 0.000000 1.000000
vn 0.000000 0.000000 1.000000
vn 0.000000 0.000000 1.000000
vn 0.000000 0.000000 1.000000
vn 0.000000 0.000000 1.000000
vn 0.000000 0.000000 1.000000
vn 0.000000 0.000000 1.000000
vn 0.000000 0.000000 1.000000
vn 0.000000 0.000000 1.000000
vn 0.000000 0.000000 1.000000
vn 0.000000 0.000000 1.000000
vn 0.000000 0.000000 1.000000
vn 0.000000 0.000000 1.000000
vn 0.000000 0.000000 1.000000
vn 0.000000 0.000000 1.000000
vn 0.000000 0.000000 1.000000
vn 0.000000 0.000000 1.000000
vn 0.000000 0.000000 1.000000
vn 0.000000 0.000000 1.000000
vn 0.000000 0.000000 1.000000
vn 0.000000 0.000000 1.000000
vn 0.000000 0.000000 1.000000
vn 0.000000 0.000000 1.000000
vn 0.000000 0.000000 1.000000
vn 0.000000 0.000000 1.000000
vn 0.000000 0.000000 1.000000
vn 0.000000 0.000000 1.000000
vn 0.000000 0.000000 1.000000
vn 0.000000 0.000000 1.000000
vn 0.000000 0.000000 1.000000
vn 0.000000 0.000000 1.000000
vn 0.000000 0.000000 1.000000
vn 0.000000 0.000000 1.000000
vn 0.000000 0.000000 1.000000
vn 0.000000 0.000000 1.000000
vn 0.000000 0.000000 1.000000
vn 0.000000 0.000000 1.000000
vn 0.000000 0.000000 1.000000
s off
g polySurface7 Car:Mesh
usemtl lambert2SG
f 1/1/1 2/2/2 22/3/3 21/4/4
f 2/2/5 3/5/6 23/6/7 22/3/8
f 3/5/9 4/7/10 24/8/11 23/6/12
f 4/7/13 5/9/14 25/10/15 24/8/16
f 5/9/17 6/11/18 26/12/19 25/10/20
f 6/13/21 7/14/22 27/15/23 26/16/24
f 7/14/25 8/17/26 28/18/27 27/15/28
f 8/17/29 9/19/30 29/20/31 28/18/32
f 9/19/33 10/21/34 30/22/35 29/20/36
f 10/21/37 11/23/38 31/24/39 30/22/40
f 11/23/41 12/25/42 32/26/43 31/24/44
f 12/25/45 13/27/46 33/28/47 32/26/48
f 13/27/49 14/29/50 34/30/51 33/28/52
f 14/29/53 15/31/54 35/32/55 34/30/56
f 15/31/57 16/33/58 36/34/59 35/32/60
f 16/33/61 17/35/62 37/36/63 36/34/64
f 17/35/65 18/37/66 38/38/67 37/36/68
f 18/37/69 19/39/70 39/40/71 38/38/72
f 19/39/73 20/41/74 40/42/75 39/40/76
f 20/41/77 1/1/78 21/4/79 40/42/80
f 2/43/81 1/44/82 41/45/83
f 3/46/84 2/43/85 41/45/86
f 4/47/87 3/46/88 41/45/89
f 5/48/90 4/47/91 41/45/92
f 6/49/93 5/48/94 41/45/95
f 7/50/96 6/49/97 41/45/98
f 8/51/99 7/50/100 41/45/101
f 9/52/102 8/51/103 41/45/104
f 10/53/105 9/52/106 41/45/107
f 11/54/108 10/53/109 41/45/110
f 12/55/111 11/54/112 41/45/113
f 13/56/114 12/55/115 41/45/116
f 14/57/117 13/56/118 41/45/119
f 15/58/120 14/57/121 41/45/122
f 16/59/123 15/58/124 41/45/125
f 17/60/126 16/59/127 41/45/128
f 18/61/129 17/60/130 41/45/131
f 19/62/132 18/61/133 41/45/134
f 20/63/135 19/62/136 41/45/137
f 1/44/138 20/63/139 41/45/140
f 21/64/141 22/65/142 42/66/143
f 22/65/144 23/67/145 42/66/146
f 23/67/147 24/68/148 42/66/149
f 24/68/150 25/69/151 42/66/152
f 25/69/153 26/70/154 42/66/155
f 26/70/156 27/71/157 42/66/158
f 27/71/159 28/72/160 42/66/161
f 28/72/162 29/73/163 42/66/164
f 29/73/165 30/74/166 42/66/167
f 30/74/168 31/75/169 42/66/170
f 31/75/171 32/76/172 42/66/173
f 32/76/174 33/77/175 42/66/176
f 33/77/177 34/78/178 42/66/179
f 34/78/180 35/79/181 42/66/182
f 35/79/183 36/80/184 42/66/185
f 36/80/186 37/81/187 42/66/188
f 37/81/189 38/82/190 42/66/191
f 38/82/192 39/83/193 42/66/194
f 39/83/195 40/84/196 42/66/197
f 40/84/198 21/64/199 42/66/200
